<?xml version="1.0" encoding="UTF-8" standalone="no"?>
<!DOCTYPE svg PUBLIC "-//W3C//DTD SVG 1.1//EN" "http://www.w3.org/Graphics/SVG/1.1/DTD/svg11.dtd">
<svg xmlns="http://www.w3.org/2000/svg" version="1.1" viewBox="0.00 0.00 772.00 503.00">
<g stroke-width="2.00" fill="none" stroke-linecap="butt">
<path stroke="#888888" vector-effect="non-scaling-stroke" d="
  M 14.83 0.00
  C 6.68 4.60 5.07 11.20 5.06 20.72
  Q 4.97 249.76 5.00 478.80
  Q 5.01 487.68 6.49 491.51
  Q 9.69 499.75 18.92 503.00"
/>
<path stroke="#888888" vector-effect="non-scaling-stroke" d="
  M 763.26 0.00
  Q 769.88 3.64 772.00 11.10"
/>
<path stroke="#888888" vector-effect="non-scaling-stroke" d="
  M 772.00 490.00
  Q 768.69 500.15 758.76 503.00"
/>
<path stroke="#888888" vector-effect="non-scaling-stroke" d="
  M 244.81 160.77
  A 9.77 9.77 0.0 0 0 235.04 151.00
  L 148.78 151.00
  A 9.77 9.77 0.0 0 0 139.01 160.77
  L 139.01 339.49
  A 9.77 9.77 0.0 0 0 148.78 349.26
  L 235.04 349.26
  A 9.77 9.77 0.0 0 0 244.81 339.49
  L 244.81 160.77"
/>
<path stroke="#888888" vector-effect="non-scaling-stroke" d="
  M 549.52 243.99
  Q 549.44 238.61 549.49 233.24
  C 549.54 227.39 542.76 227.23 542.73 233.22
  Q 542.66 249.82 542.75 266.42
  C 542.78 272.05 549.49 271.16 549.49 267.51
  Q 549.49 260.49 549.43 253.51
  Q 549.37 247.12 554.97 246.15
  C 560.85 245.13 562.41 249.56 562.50 254.59
  Q 562.60 260.79 562.69 267.00
  C 562.75 270.31 566.46 271.61 568.31 269.56
  Q 569.27 268.49 569.30 266.19
  Q 569.38 259.64 569.29 253.09
  C 569.21 247.01 568.15 241.88 562.00 240.27
  Q 555.02 238.44 550.09 244.20
  Q 549.53 244.85 549.52 243.99"
/>
<path stroke="#888888" vector-effect="non-scaling-stroke" d="
  M 479.0794 232.6314
  A 3.93 3.54 -1.0 0 0 475.0882 229.1605
  A 3.93 3.54 -1.0 0 0 471.2206 232.7686
  A 3.93 3.54 -1.0 0 0 475.2118 236.2395
  A 3.93 3.54 -1.0 0 0 479.0794 232.6314"
/>
<path stroke="#888888" vector-effect="non-scaling-stroke" d="
  M 276.19 263.34
  Q 275.82 249.22 276.10 235.07
  C 276.15 232.55 275.20 230.30 272.38 230.62
  C 269.67 230.93 269.25 232.57 269.23 235.00
  Q 269.14 251.36 269.24 267.04
  A 3.22 3.21 -0.2 0 0 272.46 270.23
  Q 283.25 270.23 294.00 270.09
  C 296.75 270.05 297.65 267.42 296.54 265.21
  Q 295.72 263.57 292.99 263.64
  Q 284.91 263.84 276.81 263.94
  Q 276.20 263.95 276.19 263.34"
/>
<path stroke="#888888" vector-effect="non-scaling-stroke" d="
  M 439.00 249.71
  Q 438.94 242.22 439.15 234.76
  C 439.30 229.25 431.91 229.21 431.95 234.50
  Q 432.06 250.50 432.05 266.50
  C 432.05 271.56 438.78 271.90 438.89 266.99
  Q 438.97 263.24 439.03 259.34
  A 1.32 1.31 -21.3 0 1 439.44 258.41
  L 444.93 253.17
  Q 445.41 252.71 445.82 253.23
  Q 451.44 260.30 456.97 267.47
  Q 458.53 269.50 459.52 270.05
  C 462.35 271.62 466.05 267.87 464.10 265.41
  Q 457.47 257.05 450.62 248.64
  Q 450.29 248.24 450.65 247.88
  Q 458.95 239.44 462.18 236.68
  C 466.35 233.12 461.24 228.04 457.44 231.95
  Q 446.25 243.48 439.60 249.96
  Q 439.00 250.55 439.00 249.71"
/>
<path stroke="#888888" vector-effect="non-scaling-stroke" d="
  M 374.49 246.10
  Q 376.69 239.34 378.62 232.89
  A 1.64 1.63 -75.1 0 0 377.42 230.82
  Q 374.44 230.13 372.03 231.71
  A 1.20 1.19 -14.2 0 0 371.49 232.61
  L 370.31 246.05
  A 1.78 1.77 5.2 0 0 371.92 247.97
  Q 373.83 248.14 374.49 246.10"
/>
<path stroke="#888888" vector-effect="non-scaling-stroke" d="
  M 496.44 246.31
  L 501.47 246.27
  A 2.58 2.58 0.0 0 0 504.02 243.63
  C 503.91 239.49 498.90 240.52 496.21 240.47
  Q 495.69 240.46 495.70 239.94
  C 495.75 238.12 496.09 234.73 494.89 233.26
  C 493.44 231.47 490.30 231.77 489.34 233.73
  C 488.57 235.30 488.90 238.11 488.86 240.09
  A 0.51 0.51 0.0 0 1 488.32 240.59
  C 483.74 240.27 483.57 246.48 488.32 246.27
  Q 488.88 246.25 488.88 246.81
  Q 488.85 254.41 488.90 262.00
  Q 488.94 270.69 497.75 270.66
  C 499.81 270.66 503.00 270.31 503.72 268.02
  C 504.96 264.09 500.07 264.59 498.05 264.46
  A 2.50 2.49 -88.2 0 1 495.72 261.97
  L 495.70 247.06
  Q 495.70 246.32 496.44 246.31"
/>
<path stroke="#888888" vector-effect="non-scaling-stroke" d="
  M 309.06 257.78
  Q 318.15 257.69 327.26 257.76
  C 328.96 257.77 330.24 256.05 330.13 254.30
  Q 329.37 242.43 318.96 240.34
  C 302.06 236.93 295.16 260.34 308.91 268.65
  Q 316.85 273.46 326.35 267.83
  C 329.51 265.96 328.86 261.47 324.68 262.23
  A 1.36 1.31 19.6 0 0 324.06 262.51
  C 318.81 266.90 309.48 266.21 308.63 258.27
  Q 308.57 257.78 309.06 257.78"
/>
<path stroke="#888888" vector-effect="non-scaling-stroke" d="
  M 342.45 258.44
  A 0.53 0.53 0.0 0 1 342.96 257.75
  L 361.24 257.74
  A 2.77 2.77 0.0 0 0 364.00 255.19
  C 364.75 245.93 357.01 238.63 347.73 240.12
  C 333.23 242.46 331.18 263.42 344.33 269.44
  Q 351.64 272.79 359.76 268.26
  C 362.45 266.76 363.81 262.63 359.71 262.09
  Q 359.25 262.02 358.85 262.25
  C 357.07 263.26 355.47 264.49 353.54 264.92
  Q 344.94 266.87 342.45 258.44"
/>
<path stroke="#888888" vector-effect="non-scaling-stroke" d="
  M 399.24 264.90
  Q 394.05 266.24 389.45 263.35
  C 387.49 262.12 385.94 261.24 384.34 263.24
  A 2.45 2.45 0.0 0 0 384.68 266.66
  C 391.02 271.92 407.68 273.56 407.40 261.28
  C 407.17 251.34 394.68 254.77 391.47 248.76
  A 1.09 1.09 0.0 0 1 391.47 247.74
  C 393.75 243.51 399.36 245.97 402.60 247.31
  C 406.47 248.90 408.33 244.25 405.47 242.58
  C 399.03 238.80 385.54 238.21 385.37 249.08
  C 385.21 259.49 402.76 256.72 401.11 263.04
  A 2.61 2.60 -89.8 0 1 399.24 264.90"
/>
<path stroke="#888888" vector-effect="non-scaling-stroke" d="
  M 527.53 246.46
  C 529.46 247.15 531.14 249.22 533.20 249.01
  C 535.98 248.74 536.71 245.23 534.63 243.48
  C 528.63 238.43 519.25 238.77 513.62 244.22
  C 507.42 250.21 507.45 260.72 513.74 266.54
  C 519.79 272.15 528.37 272.34 534.69 267.00
  C 536.66 265.34 536.41 263.33 534.49 261.80
  A 2.08 2.08 0.0 0 0 531.82 261.86
  C 527.43 265.71 520.67 266.25 517.31 260.96
  C 512.86 253.95 518.41 243.21 527.53 246.46"
/>
<path stroke="#888888" vector-effect="non-scaling-stroke" d="
  M 583.50 257.76
  Q 592.29 257.75 601.07 257.72
  C 607.11 257.71 603.78 248.43 602.00 245.92
  C 598.33 240.75 591.22 238.31 585.30 240.82
  C 576.53 244.56 573.39 255.67 577.96 263.52
  C 582.59 271.46 594.55 273.42 601.53 267.09
  C 603.21 265.58 603.17 263.68 601.34 262.34
  A 2.11 2.09 -45.5 0 0 598.81 262.37
  C 597.22 263.61 595.47 264.65 593.51 265.08
  C 589.06 266.03 583.15 263.50 582.98 258.30
  Q 582.96 257.76 583.50 257.76"
/>
<path stroke="#888888" vector-effect="non-scaling-stroke" d="
  M 618.26 244.00
  C 618.39 242.00 617.37 240.51 615.31 240.25
  C 612.04 239.83 611.50 242.49 611.50 245.18
  Q 611.48 255.82 611.53 266.47
  C 611.56 271.84 618.23 271.94 618.26 266.35
  C 618.28 262.02 617.40 253.07 619.18 249.42
  C 621.14 245.39 628.14 244.82 630.35 248.83
  C 632.30 252.37 631.40 262.49 631.35 266.75
  C 631.32 270.72 636.41 271.71 637.69 268.88
  Q 638.17 267.81 638.18 265.07
  Q 638.21 258.28 638.11 251.51
  Q 637.95 240.55 628.12 239.96
  C 624.18 239.73 621.33 241.31 618.88 244.25
  Q 618.19 245.09 618.26 244.00"
/>
<path stroke="#888888" vector-effect="non-scaling-stroke" d="
  M 478.5706 243.5359
  A 3.30 3.30 0.0 0 0 475.2764 240.2302
  L 475.0964 240.2299
  A 3.30 3.30 0.0 0 0 471.7906 243.5241
  L 471.7494 267.1641
  A 3.30 3.30 0.0 0 0 475.0436 270.4698
  L 475.2236 270.4701
  A 3.30 3.30 0.0 0 0 478.5294 267.1759
  L 478.5706 243.5359"
/>
<path stroke="#888888" vector-effect="non-scaling-stroke" d="
  M 206.17 181.20
  Q 197.71 206.52 199.77 233.27
  Q 200.30 240.08 206.96 245.00
  A 1.64 1.60 9.7 0 1 207.54 245.80
  Q 209.43 251.44 209.45 259.00
  Q 209.55 293.25 209.49 327.50
  C 209.48 332.88 217.15 332.14 219.85 329.35
  A 0.97 0.96 67.1 0 0 220.12 328.68
  L 220.12 171.78
  A 2.61 2.61 0.0 0 0 217.30 169.18
  C 211.66 169.64 207.73 176.52 206.17 181.20"
/>
<path stroke="#888888" vector-effect="non-scaling-stroke" d="
  M 169.54 210.23
  L 167.67 210.14
  Q 166.90 210.10 166.90 209.33
  Q 166.90 194.04 166.85 178.75
  Q 166.84 175.76 165.80 173.76
  A 0.60 0.59 -31.9 0 0 164.91 173.56
  Q 163.43 174.69 163.42 176.76
  Q 163.27 196.63 163.36 216.50
  Q 163.39 224.48 167.75 229.58
  C 169.49 231.63 170.48 233.34 170.48 235.75
  Q 170.48 281.51 170.49 327.27
  C 170.49 332.64 178.88 332.76 180.50 329.14
  Q 181.11 327.75 181.10 323.30
  Q 181.01 279.95 181.11 236.59
  C 181.12 232.51 182.40 231.20 184.84 228.28
  Q 188.36 224.06 188.33 217.50
  Q 188.24 197.88 188.23 178.25
  Q 188.23 175.64 186.96 173.76
  A 0.67 0.67 0.0 0 0 185.83 173.79
  Q 184.51 176.01 184.54 178.76
  Q 184.67 193.37 184.63 208.00
  Q 184.63 209.46 184.17 209.89
  Q 183.46 210.55 181.82 210.09
  A 1.02 1.01 -82.6 0 1 181.07 209.11
  Q 181.11 193.17 181.03 176.76
  Q 181.02 174.67 179.44 173.55
  A 0.60 0.60 0.0 0 0 178.55 173.79
  Q 177.54 176.07 177.53 179.51
  Q 177.52 194.47 177.51 209.47
  Q 177.51 210.24 176.74 210.22
  L 174.65 210.15
  Q 174.02 210.13 174.02 209.50
  Q 174.00 193.62 173.88 177.75
  Q 173.87 175.63 173.02 174.06
  A 1.01 1.01 0.0 0 0 171.16 174.30
  C 170.82 175.68 170.39 177.17 170.42 178.59
  Q 170.74 194.05 170.33 209.50
  Q 170.31 210.28 169.54 210.23"
/>
<path stroke="#888888" vector-effect="non-scaling-stroke" d="
  M 308.74 253.27
  L 323.26 253.25
  A 0.18 0.18 0.0 0 0 323.44 253.07
  L 323.44 252.98
  A 7.47 7.40 89.9 0 0 316.02 245.52
  L 315.94 245.52
  A 7.47 7.40 89.9 0 0 308.56 253.00
  L 308.56 253.09
  A 0.18 0.18 0.0 0 0 308.74 253.27"
/>
<path stroke="#888888" vector-effect="non-scaling-stroke" d="
  M 342.70 253.27
  L 357.26 253.25
  A 0.17 0.17 0.0 0 0 357.43 253.08
  L 357.43 252.99
  A 7.48 7.43 89.9 0 0 349.98 245.52
  L 349.94 245.52
  A 7.48 7.43 89.9 0 0 342.53 253.01
  L 342.53 253.10
  A 0.17 0.17 0.0 0 0 342.70 253.27"
/>
<path stroke="#888888" vector-effect="non-scaling-stroke" d="
  M 583.05 253.29
  L 597.59 253.23
  A 0.17 0.17 0.0 0 0 597.76 253.06
  L 597.76 252.98
  A 7.47 7.42 89.8 0 0 590.32 245.54
  L 590.28 245.54
  A 7.47 7.42 89.8 0 0 582.88 253.04
  L 582.88 253.12
  A 0.17 0.17 0.0 0 0 583.05 253.29"
/>
</g>
<path fill="#ffffff" d="
  M 0.00 0.00
  L 14.83 0.00
  C 6.68 4.60 5.07 11.20 5.06 20.72
  Q 4.97 249.76 5.00 478.80
  Q 5.01 487.68 6.49 491.51
  Q 9.69 499.75 18.92 503.00
  L 0.00 503.00
  L 0.00 0.00
  Z"
/>
<path fill="#111111" d="
  M 14.83 0.00
  L 763.26 0.00
  Q 769.88 3.64 772.00 11.10
  L 772.00 490.00
  Q 768.69 500.15 758.76 503.00
  L 18.92 503.00
  Q 9.69 499.75 6.49 491.51
  Q 5.01 487.68 5.00 478.80
  Q 4.97 249.76 5.06 20.72
  C 5.07 11.20 6.68 4.60 14.83 0.00
  Z
  M 244.81 160.77
  A 9.77 9.77 0.0 0 0 235.04 151.00
  L 148.78 151.00
  A 9.77 9.77 0.0 0 0 139.01 160.77
  L 139.01 339.49
  A 9.77 9.77 0.0 0 0 148.78 349.26
  L 235.04 349.26
  A 9.77 9.77 0.0 0 0 244.81 339.49
  L 244.81 160.77
  Z
  M 549.52 243.99
  Q 549.44 238.61 549.49 233.24
  C 549.54 227.39 542.76 227.23 542.73 233.22
  Q 542.66 249.82 542.75 266.42
  C 542.78 272.05 549.49 271.16 549.49 267.51
  Q 549.49 260.49 549.43 253.51
  Q 549.37 247.12 554.97 246.15
  C 560.85 245.13 562.41 249.56 562.50 254.59
  Q 562.60 260.79 562.69 267.00
  C 562.75 270.31 566.46 271.61 568.31 269.56
  Q 569.27 268.49 569.30 266.19
  Q 569.38 259.64 569.29 253.09
  C 569.21 247.01 568.15 241.88 562.00 240.27
  Q 555.02 238.44 550.09 244.20
  Q 549.53 244.85 549.52 243.99
  Z
  M 479.0794 232.6314
  A 3.93 3.54 -1.0 0 0 475.0882 229.1605
  A 3.93 3.54 -1.0 0 0 471.2206 232.7686
  A 3.93 3.54 -1.0 0 0 475.2118 236.2395
  A 3.93 3.54 -1.0 0 0 479.0794 232.6314
  Z
  M 276.19 263.34
  Q 275.82 249.22 276.10 235.07
  C 276.15 232.55 275.20 230.30 272.38 230.62
  C 269.67 230.93 269.25 232.57 269.23 235.00
  Q 269.14 251.36 269.24 267.04
  A 3.22 3.21 -0.2 0 0 272.46 270.23
  Q 283.25 270.23 294.00 270.09
  C 296.75 270.05 297.65 267.42 296.54 265.21
  Q 295.72 263.57 292.99 263.64
  Q 284.91 263.84 276.81 263.94
  Q 276.20 263.95 276.19 263.34
  Z
  M 439.00 249.71
  Q 438.94 242.22 439.15 234.76
  C 439.30 229.25 431.91 229.21 431.95 234.50
  Q 432.06 250.50 432.05 266.50
  C 432.05 271.56 438.78 271.90 438.89 266.99
  Q 438.97 263.24 439.03 259.34
  A 1.32 1.31 -21.3 0 1 439.44 258.41
  L 444.93 253.17
  Q 445.41 252.71 445.82 253.23
  Q 451.44 260.30 456.97 267.47
  Q 458.53 269.50 459.52 270.05
  C 462.35 271.62 466.05 267.87 464.10 265.41
  Q 457.47 257.05 450.62 248.64
  Q 450.29 248.24 450.65 247.88
  Q 458.95 239.44 462.18 236.68
  C 466.35 233.12 461.24 228.04 457.44 231.95
  Q 446.25 243.48 439.60 249.96
  Q 439.00 250.55 439.00 249.71
  Z
  M 374.49 246.10
  Q 376.69 239.34 378.62 232.89
  A 1.64 1.63 -75.1 0 0 377.42 230.82
  Q 374.44 230.13 372.03 231.71
  A 1.20 1.19 -14.2 0 0 371.49 232.61
  L 370.31 246.05
  A 1.78 1.77 5.2 0 0 371.92 247.97
  Q 373.83 248.14 374.49 246.10
  Z
  M 496.44 246.31
  L 501.47 246.27
  A 2.58 2.58 0.0 0 0 504.02 243.63
  C 503.91 239.49 498.90 240.52 496.21 240.47
  Q 495.69 240.46 495.70 239.94
  C 495.75 238.12 496.09 234.73 494.89 233.26
  C 493.44 231.47 490.30 231.77 489.34 233.73
  C 488.57 235.30 488.90 238.11 488.86 240.09
  A 0.51 0.51 0.0 0 1 488.32 240.59
  C 483.74 240.27 483.57 246.48 488.32 246.27
  Q 488.88 246.25 488.88 246.81
  Q 488.85 254.41 488.90 262.00
  Q 488.94 270.69 497.75 270.66
  C 499.81 270.66 503.00 270.31 503.72 268.02
  C 504.96 264.09 500.07 264.59 498.05 264.46
  A 2.50 2.49 -88.2 0 1 495.72 261.97
  L 495.70 247.06
  Q 495.70 246.32 496.44 246.31
  Z
  M 309.06 257.78
  Q 318.15 257.69 327.26 257.76
  C 328.96 257.77 330.24 256.05 330.13 254.30
  Q 329.37 242.43 318.96 240.34
  C 302.06 236.93 295.16 260.34 308.91 268.65
  Q 316.85 273.46 326.35 267.83
  C 329.51 265.96 328.86 261.47 324.68 262.23
  A 1.36 1.31 19.6 0 0 324.06 262.51
  C 318.81 266.90 309.48 266.21 308.63 258.27
  Q 308.57 257.78 309.06 257.78
  Z
  M 342.45 258.44
  A 0.53 0.53 0.0 0 1 342.96 257.75
  L 361.24 257.74
  A 2.77 2.77 0.0 0 0 364.00 255.19
  C 364.75 245.93 357.01 238.63 347.73 240.12
  C 333.23 242.46 331.18 263.42 344.33 269.44
  Q 351.64 272.79 359.76 268.26
  C 362.45 266.76 363.81 262.63 359.71 262.09
  Q 359.25 262.02 358.85 262.25
  C 357.07 263.26 355.47 264.49 353.54 264.92
  Q 344.94 266.87 342.45 258.44
  Z
  M 399.24 264.90
  Q 394.05 266.24 389.45 263.35
  C 387.49 262.12 385.94 261.24 384.34 263.24
  A 2.45 2.45 0.0 0 0 384.68 266.66
  C 391.02 271.92 407.68 273.56 407.40 261.28
  C 407.17 251.34 394.68 254.77 391.47 248.76
  A 1.09 1.09 0.0 0 1 391.47 247.74
  C 393.75 243.51 399.36 245.97 402.60 247.31
  C 406.47 248.90 408.33 244.25 405.47 242.58
  C 399.03 238.80 385.54 238.21 385.37 249.08
  C 385.21 259.49 402.76 256.72 401.11 263.04
  A 2.61 2.60 -89.8 0 1 399.24 264.90
  Z
  M 527.53 246.46
  C 529.46 247.15 531.14 249.22 533.20 249.01
  C 535.98 248.74 536.71 245.23 534.63 243.48
  C 528.63 238.43 519.25 238.77 513.62 244.22
  C 507.42 250.21 507.45 260.72 513.74 266.54
  C 519.79 272.15 528.37 272.34 534.69 267.00
  C 536.66 265.34 536.41 263.33 534.49 261.80
  A 2.08 2.08 0.0 0 0 531.82 261.86
  C 527.43 265.71 520.67 266.25 517.31 260.96
  C 512.86 253.95 518.41 243.21 527.53 246.46
  Z
  M 583.50 257.76
  Q 592.29 257.75 601.07 257.72
  C 607.11 257.71 603.78 248.43 602.00 245.92
  C 598.33 240.75 591.22 238.31 585.30 240.82
  C 576.53 244.56 573.39 255.67 577.96 263.52
  C 582.59 271.46 594.55 273.42 601.53 267.09
  C 603.21 265.58 603.17 263.68 601.34 262.34
  A 2.11 2.09 -45.5 0 0 598.81 262.37
  C 597.22 263.61 595.47 264.65 593.51 265.08
  C 589.06 266.03 583.15 263.50 582.98 258.30
  Q 582.96 257.76 583.50 257.76
  Z
  M 618.26 244.00
  C 618.39 242.00 617.37 240.51 615.31 240.25
  C 612.04 239.83 611.50 242.49 611.50 245.18
  Q 611.48 255.82 611.53 266.47
  C 611.56 271.84 618.23 271.94 618.26 266.35
  C 618.28 262.02 617.40 253.07 619.18 249.42
  C 621.14 245.39 628.14 244.82 630.35 248.83
  C 632.30 252.37 631.40 262.49 631.35 266.75
  C 631.32 270.72 636.41 271.71 637.69 268.88
  Q 638.17 267.81 638.18 265.07
  Q 638.21 258.28 638.11 251.51
  Q 637.95 240.55 628.12 239.96
  C 624.18 239.73 621.33 241.31 618.88 244.25
  Q 618.19 245.09 618.26 244.00
  Z
  M 478.5706 243.5359
  A 3.30 3.30 0.0 0 0 475.2764 240.2302
  L 475.0964 240.2299
  A 3.30 3.30 0.0 0 0 471.7906 243.5241
  L 471.7494 267.1641
  A 3.30 3.30 0.0 0 0 475.0436 270.4698
  L 475.2236 270.4701
  A 3.30 3.30 0.0 0 0 478.5294 267.1759
  L 478.5706 243.5359
  Z"
/>
<path fill="#ffffff" d="
  M 763.26 0.00
  L 772.00 0.00
  L 772.00 11.10
  Q 769.88 3.64 763.26 0.00
  Z"
/>
<path fill="#ffffff" d="
  M 244.81 339.49
  A 9.77 9.77 0.0 0 1 235.04 349.26
  L 148.78 349.26
  A 9.77 9.77 0.0 0 1 139.01 339.49
  L 139.01 160.77
  A 9.77 9.77 0.0 0 1 148.78 151.00
  L 235.04 151.00
  A 9.77 9.77 0.0 0 1 244.81 160.77
  L 244.81 339.49
  Z
  M 206.17 181.20
  Q 197.71 206.52 199.77 233.27
  Q 200.30 240.08 206.96 245.00
  A 1.64 1.60 9.7 0 1 207.54 245.80
  Q 209.43 251.44 209.45 259.00
  Q 209.55 293.25 209.49 327.50
  C 209.48 332.88 217.15 332.14 219.85 329.35
  A 0.97 0.96 67.1 0 0 220.12 328.68
  L 220.12 171.78
  A 2.61 2.61 0.0 0 0 217.30 169.18
  C 211.66 169.64 207.73 176.52 206.17 181.20
  Z
  M 169.54 210.23
  L 167.67 210.14
  Q 166.90 210.10 166.90 209.33
  Q 166.90 194.04 166.85 178.75
  Q 166.84 175.76 165.80 173.76
  A 0.60 0.59 -31.9 0 0 164.91 173.56
  Q 163.43 174.69 163.42 176.76
  Q 163.27 196.63 163.36 216.50
  Q 163.39 224.48 167.75 229.58
  C 169.49 231.63 170.48 233.34 170.48 235.75
  Q 170.48 281.51 170.49 327.27
  C 170.49 332.64 178.88 332.76 180.50 329.14
  Q 181.11 327.75 181.10 323.30
  Q 181.01 279.95 181.11 236.59
  C 181.12 232.51 182.40 231.20 184.84 228.28
  Q 188.36 224.06 188.33 217.50
  Q 188.24 197.88 188.23 178.25
  Q 188.23 175.64 186.96 173.76
  A 0.67 0.67 0.0 0 0 185.83 173.79
  Q 184.51 176.01 184.54 178.76
  Q 184.67 193.37 184.63 208.00
  Q 184.63 209.46 184.17 209.89
  Q 183.46 210.55 181.82 210.09
  A 1.02 1.01 -82.6 0 1 181.07 209.11
  Q 181.11 193.17 181.03 176.76
  Q 181.02 174.67 179.44 173.55
  A 0.60 0.60 0.0 0 0 178.55 173.79
  Q 177.54 176.07 177.53 179.51
  Q 177.52 194.47 177.51 209.47
  Q 177.51 210.24 176.74 210.22
  L 174.65 210.15
  Q 174.02 210.13 174.02 209.50
  Q 174.00 193.62 173.88 177.75
  Q 173.87 175.63 173.02 174.06
  A 1.01 1.01 0.0 0 0 171.16 174.30
  C 170.82 175.68 170.39 177.17 170.42 178.59
  Q 170.74 194.05 170.33 209.50
  Q 170.31 210.28 169.54 210.23
  Z"
/>
<path fill="#111111" d="
  M 206.17 181.20
  C 207.73 176.52 211.66 169.64 217.30 169.18
  A 2.61 2.61 0.0 0 1 220.12 171.78
  L 220.12 328.68
  A 0.97 0.96 67.1 0 1 219.85 329.35
  C 217.15 332.14 209.48 332.88 209.49 327.50
  Q 209.55 293.25 209.45 259.00
  Q 209.43 251.44 207.54 245.80
  A 1.64 1.60 9.7 0 0 206.96 245.00
  Q 200.30 240.08 199.77 233.27
  Q 197.71 206.52 206.17 181.20
  Z"
/>
<path fill="#111111" d="
  M 170.33 209.50
  Q 170.74 194.05 170.42 178.59
  C 170.39 177.17 170.82 175.68 171.16 174.30
  A 1.01 1.01 0.0 0 1 173.02 174.06
  Q 173.87 175.63 173.88 177.75
  Q 174.00 193.62 174.02 209.50
  Q 174.02 210.13 174.65 210.15
  L 176.74 210.22
  Q 177.51 210.24 177.51 209.47
  Q 177.52 194.47 177.53 179.51
  Q 177.54 176.07 178.55 173.79
  A 0.60 0.60 0.0 0 1 179.44 173.55
  Q 181.02 174.67 181.03 176.76
  Q 181.11 193.17 181.07 209.11
  A 1.02 1.01 -82.6 0 0 181.82 210.09
  Q 183.46 210.55 184.17 209.89
  Q 184.63 209.46 184.63 208.00
  Q 184.67 193.37 184.54 178.76
  Q 184.51 176.01 185.83 173.79
  A 0.67 0.67 0.0 0 1 186.96 173.76
  Q 188.23 175.64 188.23 178.25
  Q 188.24 197.88 188.33 217.50
  Q 188.36 224.06 184.84 228.28
  C 182.40 231.20 181.12 232.51 181.11 236.59
  Q 181.01 279.95 181.10 323.30
  Q 181.11 327.75 180.50 329.14
  C 178.88 332.76 170.49 332.64 170.49 327.27
  Q 170.48 281.51 170.48 235.75
  C 170.48 233.34 169.49 231.63 167.75 229.58
  Q 163.39 224.48 163.36 216.50
  Q 163.27 196.63 163.42 176.76
  Q 163.43 174.69 164.91 173.56
  A 0.60 0.59 -31.9 0 1 165.80 173.76
  Q 166.84 175.76 166.85 178.75
  Q 166.90 194.04 166.90 209.33
  Q 166.90 210.10 167.67 210.14
  L 169.54 210.23
  Q 170.31 210.28 170.33 209.50
  Z"
/>
<path fill="#ffffff" d="
  M 550.09 244.20
  Q 555.02 238.44 562.00 240.27
  C 568.15 241.88 569.21 247.01 569.29 253.09
  Q 569.38 259.64 569.30 266.19
  Q 569.27 268.49 568.31 269.56
  C 566.46 271.61 562.75 270.31 562.69 267.00
  Q 562.60 260.79 562.50 254.59
  C 562.41 249.56 560.85 245.13 554.97 246.15
  Q 549.37 247.12 549.43 253.51
  Q 549.49 260.49 549.49 267.51
  C 549.49 271.16 542.78 272.05 542.75 266.42
  Q 542.66 249.82 542.73 233.22
  C 542.76 227.23 549.54 227.39 549.49 233.24
  Q 549.44 238.61 549.52 243.99
  Q 549.53 244.85 550.09 244.20
  Z"
/>
<ellipse fill="#ffffff" cx="0.00" cy="0.00" transform="translate(475.15,232.70) rotate(-1.0)" rx="3.93" ry="3.54"/>
<path fill="#ffffff" d="
  M 276.81 263.94
  Q 284.91 263.84 292.99 263.64
  Q 295.72 263.57 296.54 265.21
  C 297.65 267.42 296.75 270.05 294.00 270.09
  Q 283.25 270.23 272.46 270.23
  A 3.22 3.21 -0.2 0 1 269.24 267.04
  Q 269.14 251.36 269.23 235.00
  C 269.25 232.57 269.67 230.93 272.38 230.62
  C 275.20 230.30 276.15 232.55 276.10 235.07
  Q 275.82 249.22 276.19 263.34
  Q 276.20 263.95 276.81 263.94
  Z"
/>
<path fill="#ffffff" d="
  M 439.60 249.96
  Q 446.25 243.48 457.44 231.95
  C 461.24 228.04 466.35 233.12 462.18 236.68
  Q 458.95 239.44 450.65 247.88
  Q 450.29 248.24 450.62 248.64
  Q 457.47 257.05 464.10 265.41
  C 466.05 267.87 462.35 271.62 459.52 270.05
  Q 458.53 269.50 456.97 267.47
  Q 451.44 260.30 445.82 253.23
  Q 445.41 252.71 444.93 253.17
  L 439.44 258.41
  A 1.32 1.31 -21.3 0 0 439.03 259.34
  Q 438.97 263.24 438.89 266.99
  C 438.78 271.90 432.05 271.56 432.05 266.50
  Q 432.06 250.50 431.95 234.50
  C 431.91 229.21 439.30 229.25 439.15 234.76
  Q 438.94 242.22 439.00 249.71
  Q 439.00 250.55 439.60 249.96
  Z"
/>
<path fill="#ffffff" d="
  M 374.49 246.10
  Q 373.83 248.14 371.92 247.97
  A 1.78 1.77 5.2 0 1 370.31 246.05
  L 371.49 232.61
  A 1.20 1.19 -14.2 0 1 372.03 231.71
  Q 374.44 230.13 377.42 230.82
  A 1.64 1.63 -75.1 0 1 378.62 232.89
  Q 376.69 239.34 374.49 246.10
  Z"
/>
<path fill="#ffffff" d="
  M 495.70 247.06
  L 495.72 261.97
  A 2.50 2.49 -88.2 0 0 498.05 264.46
  C 500.07 264.59 504.96 264.09 503.72 268.02
  C 503.00 270.31 499.81 270.66 497.75 270.66
  Q 488.94 270.69 488.90 262.00
  Q 488.85 254.41 488.88 246.81
  Q 488.88 246.25 488.32 246.27
  C 483.57 246.48 483.74 240.27 488.32 240.59
  A 0.51 0.51 0.0 0 0 488.86 240.09
  C 488.90 238.11 488.57 235.30 489.34 233.73
  C 490.30 231.77 493.44 231.47 494.89 233.26
  C 496.09 234.73 495.75 238.12 495.70 239.94
  Q 495.69 240.46 496.21 240.47
  C 498.90 240.52 503.91 239.49 504.02 243.63
  A 2.58 2.58 0.0 0 1 501.47 246.27
  L 496.44 246.31
  Q 495.70 246.32 495.70 247.06
  Z"
/>
<path fill="#ffffff" d="
  M 308.63 258.27
  C 309.48 266.21 318.81 266.90 324.06 262.51
  A 1.36 1.31 19.6 0 1 324.68 262.23
  C 328.86 261.47 329.51 265.96 326.35 267.83
  Q 316.85 273.46 308.91 268.65
  C 295.16 260.34 302.06 236.93 318.96 240.34
  Q 329.37 242.43 330.13 254.30
  C 330.24 256.05 328.96 257.77 327.26 257.76
  Q 318.15 257.69 309.06 257.78
  Q 308.57 257.78 308.63 258.27
  Z
  M 308.74 253.27
  L 323.26 253.25
  A 0.18 0.18 0.0 0 0 323.44 253.07
  L 323.44 252.98
  A 7.47 7.40 89.9 0 0 316.02 245.52
  L 315.94 245.52
  A 7.47 7.40 89.9 0 0 308.56 253.00
  L 308.56 253.09
  A 0.18 0.18 0.0 0 0 308.74 253.27
  Z"
/>
<path fill="#ffffff" d="
  M 342.45 258.44
  Q 344.94 266.87 353.54 264.92
  C 355.47 264.49 357.07 263.26 358.85 262.25
  Q 359.25 262.02 359.71 262.09
  C 363.81 262.63 362.45 266.76 359.76 268.26
  Q 351.64 272.79 344.33 269.44
  C 331.18 263.42 333.23 242.46 347.73 240.12
  C 357.01 238.63 364.75 245.93 364.00 255.19
  A 2.77 2.77 0.0 0 1 361.24 257.74
  L 342.96 257.75
  A 0.53 0.53 0.0 0 0 342.45 258.44
  Z
  M 342.70 253.27
  L 357.26 253.25
  A 0.17 0.17 0.0 0 0 357.43 253.08
  L 357.43 252.99
  A 7.48 7.43 89.9 0 0 349.98 245.52
  L 349.94 245.52
  A 7.48 7.43 89.9 0 0 342.53 253.01
  L 342.53 253.10
  A 0.17 0.17 0.0 0 0 342.70 253.27
  Z"
/>
<path fill="#ffffff" d="
  M 399.24 264.90
  A 2.61 2.60 -89.8 0 0 401.11 263.04
  C 402.76 256.72 385.21 259.49 385.37 249.08
  C 385.54 238.21 399.03 238.80 405.47 242.58
  C 408.33 244.25 406.47 248.90 402.60 247.31
  C 399.36 245.97 393.75 243.51 391.47 247.74
  A 1.09 1.09 0.0 0 0 391.47 248.76
  C 394.68 254.77 407.17 251.34 407.40 261.28
  C 407.68 273.56 391.02 271.92 384.68 266.66
  A 2.45 2.45 0.0 0 1 384.34 263.24
  C 385.94 261.24 387.49 262.12 389.45 263.35
  Q 394.05 266.24 399.24 264.90
  Z"
/>
<path fill="#ffffff" d="
  M 527.53 246.46
  C 518.41 243.21 512.86 253.95 517.31 260.96
  C 520.67 266.25 527.43 265.71 531.82 261.86
  A 2.08 2.08 0.0 0 1 534.49 261.80
  C 536.41 263.33 536.66 265.34 534.69 267.00
  C 528.37 272.34 519.79 272.15 513.74 266.54
  C 507.45 260.72 507.42 250.21 513.62 244.22
  C 519.25 238.77 528.63 238.43 534.63 243.48
  C 536.71 245.23 535.98 248.74 533.20 249.01
  C 531.14 249.22 529.46 247.15 527.53 246.46
  Z"
/>
<path fill="#ffffff" d="
  M 582.98 258.30
  C 583.15 263.50 589.06 266.03 593.51 265.08
  C 595.47 264.65 597.22 263.61 598.81 262.37
  A 2.11 2.09 -45.5 0 1 601.34 262.34
  C 603.17 263.68 603.21 265.58 601.53 267.09
  C 594.55 273.42 582.59 271.46 577.96 263.52
  C 573.39 255.67 576.53 244.56 585.30 240.82
  C 591.22 238.31 598.33 240.75 602.00 245.92
  C 603.78 248.43 607.11 257.71 601.07 257.72
  Q 592.29 257.75 583.50 257.76
  Q 582.96 257.76 582.98 258.30
  Z
  M 583.05 253.29
  L 597.59 253.23
  A 0.17 0.17 0.0 0 0 597.76 253.06
  L 597.76 252.98
  A 7.47 7.42 89.8 0 0 590.32 245.54
  L 590.28 245.54
  A 7.47 7.42 89.8 0 0 582.88 253.04
  L 582.88 253.12
  A 0.17 0.17 0.0 0 0 583.05 253.29
  Z"
/>
<path fill="#ffffff" d="
  M 618.88 244.25
  C 621.33 241.31 624.18 239.73 628.12 239.96
  Q 637.95 240.55 638.11 251.51
  Q 638.21 258.28 638.18 265.07
  Q 638.17 267.81 637.69 268.88
  C 636.41 271.71 631.32 270.72 631.35 266.75
  C 631.40 262.49 632.30 252.37 630.35 248.83
  C 628.14 244.82 621.14 245.39 619.18 249.42
  C 617.40 253.07 618.28 262.02 618.26 266.35
  C 618.23 271.94 611.56 271.84 611.53 266.47
  Q 611.48 255.82 611.50 245.18
  C 611.50 242.49 612.04 239.83 615.31 240.25
  C 617.37 240.51 618.39 242.00 618.26 244.00
  Q 618.19 245.09 618.88 244.25
  Z"
/>
<rect fill="#ffffff" x="-3.39" y="-15.12" transform="translate(475.16,255.35) rotate(0.1)" width="6.78" height="30.24" rx="3.30"/>
<path fill="#111111" d="
  M 308.74 253.27
  A 0.18 0.18 0.0 0 1 308.56 253.09
  L 308.56 253.00
  A 7.47 7.40 89.9 0 1 315.94 245.52
  L 316.02 245.52
  A 7.47 7.40 89.9 0 1 323.44 252.98
  L 323.44 253.07
  A 0.18 0.18 0.0 0 1 323.26 253.25
  L 308.74 253.27
  Z"
/>
<path fill="#111111" d="
  M 342.70 253.27
  A 0.17 0.17 0.0 0 1 342.53 253.10
  L 342.53 253.01
  A 7.48 7.43 89.9 0 1 349.94 245.52
  L 349.98 245.52
  A 7.48 7.43 89.9 0 1 357.43 252.99
  L 357.43 253.08
  A 0.17 0.17 0.0 0 1 357.26 253.25
  L 342.70 253.27
  Z"
/>
<path fill="#111111" d="
  M 583.05 253.29
  A 0.17 0.17 0.0 0 1 582.88 253.12
  L 582.88 253.04
  A 7.47 7.42 89.8 0 1 590.28 245.54
  L 590.32 245.54
  A 7.47 7.42 89.8 0 1 597.76 252.98
  L 597.76 253.06
  A 0.17 0.17 0.0 0 1 597.59 253.23
  L 583.05 253.29
  Z"
/>
<path fill="#ffffff" d="
  M 772.00 490.00
  L 772.00 503.00
  L 758.76 503.00
  Q 768.69 500.15 772.00 490.00
  Z"
/>
</svg>
